<?xml version="1.0" encoding="utf-8"?>
<!-- Generator: Adobe Illustrator 25.1.0, SVG Export Plug-In . SVG Version: 6.00 Build 0)  -->
<svg version="1.1" id="Layer_1" xmlns="http://www.w3.org/2000/svg" xmlns:xlink="http://www.w3.org/1999/xlink" x="0px" y="0px"
	 viewBox="0 0 512 512" style="enable-background:new 0 0 512 512;" xml:space="preserve">
<style type="text/css">
	.st0{fill:#4056F4;}
</style>
<g>
	<path class="st0" d="M256,173.6c-45.5,0-82.4,36.9-82.4,82.4c0,45.5,36.9,82.4,82.4,82.4c45.5,0,82.4-36.9,82.4-82.4
		C338.4,210.5,301.5,173.6,256,173.6z M256,309.5c-29.5,0-53.5-23.9-53.5-53.5s23.9-53.5,53.5-53.5s53.5,23.9,53.5,53.5
		S285.5,309.5,256,309.5z"/>
	<path class="st0" d="M341.7,151.1c-10.6,0-19.3,8.6-19.3,19.3c0,10.6,8.6,19.3,19.3,19.3c10.6,0,19.3-8.6,19.3-19.3
		C360.9,159.7,352.3,151.1,341.7,151.1z"/>
	<path class="st0" d="M256,0C114.6,0,0,114.6,0,256s114.6,256,256,256s256-114.6,256-256S397.4,0,256,0z M386.6,320.8
		c-0.7,15.6-3.3,24.1-5.5,29.8c-5.4,14-16.5,25.1-30.5,30.5c-5.7,2.2-14.2,4.8-29.8,5.5c-16.9,0.8-22,0.9-64.8,0.9
		c-42.8,0-47.9-0.2-64.8-0.9c-15.6-0.7-24.1-3.3-29.8-5.5c-7-2.6-13.3-6.7-18.5-12c-5.3-5.2-9.4-11.5-12-18.5
		c-2.2-5.7-4.8-14.1-5.5-29.8c-0.8-16.9-0.9-22-0.9-64.8c0-42.8,0.2-47.9,0.9-64.8c0.7-15.6,3.3-24.1,5.5-29.8
		c2.6-7,6.7-13.3,12-18.5c5.2-5.3,11.5-9.4,18.5-12c5.6-2.2,14.1-4.8,29.8-5.5c16.9-0.8,22-0.9,64.8-0.9c42.8,0,47.9,0.2,64.8,0.9
		c15.6,0.7,24.1,3.3,29.8,5.5c7,2.6,13.3,6.7,18.5,12c5.3,5.2,9.4,11.5,12,18.5c2.2,5.7,4.8,14.2,5.5,29.8c0.8,16.9,0.9,22,0.9,64.8
		C387.6,298.8,387.4,303.9,386.6,320.8z"/>
</g>
</svg>
